<svg xmlns="http://www.w3.org/2000/svg" width="311.108" height="97.462" viewBox="0 0 311.108 97.462"><g id="Сгруппировать_86" data-name="Сгруппировать 86" transform="translate(-816.68 -2554.184)"><g id="Сгруппировать_85" data-name="Сгруппировать 85" fill="#fff"><path id="Контур_114" data-name="Контур 114" d="M816.68,2554.184l5.8.8v52.011l12.024-50.358,5.472.752V2634.1l-5.76.239V2583.8l-12.025,51.03-5.507.228Z"/><path id="Контур_115" data-name="Контур 115" d="M845.768,2575.7l5.58.536v22.4l8.423.357v-21.952l5.617.54v55.462l-5.617.233v-21.008l-8.423-.083v21.44l-5.58.232Z"/><path id="Контур_116" data-name="Контур 116" d="M894.458,2624.807q-3.008,7.043-8.586,8.365v18l-5.148.469V2633.4c-3.721-.572-6.582-3.223-8.586-7.983-2-4.81-3.006-11.559-3.006-20.206q0-12.765,2.97-19.584c1.98-4.485,4.853-6.9,8.622-7.266v-19.535l5.148.763v19.276q5.58,1.614,8.586,8.588c2,4.6,3.006,10.765,3.006,18.546Q897.464,2617.859,894.458,2624.807Zm-18.414-8.264q1.474,3.9,4.68,4.856v-31.038q-3.206.681-4.68,4.353-1.476,3.693-1.477,10.648Q874.567,2612.617,876.044,2616.543Zm14.525-.008q1.494-3.759,1.494-10.687,0-6.643-1.494-10.335a7.75,7.75,0,0,0-4.7-4.808v30.626A7.508,7.508,0,0,0,890.569,2616.535Z"/><path id="Контур_117" data-name="Контур 117" d="M904.825,2628.849a24.348,24.348,0,0,1-3.8-9.126,60.1,60.1,0,0,1-1.368-13.474,59.144,59.144,0,0,1,1.368-13.4,23,23,0,0,1,3.8-8.918q2.43-3.069,5.49-2.761t5.472,3.737a26.4,26.4,0,0,1,3.78,9.126,54.906,54.906,0,0,1,1.368,12.8,53.91,53.91,0,0,1-1.368,12.722,24.859,24.859,0,0,1-3.78,8.92q-2.412,3.3-5.472,3.441C908.274,2632,906.445,2630.985,904.825,2628.849Zm9.036-12.372a28.385,28.385,0,0,0,1.386-9.8,29.054,29.054,0,0,0-1.386-9.879c-.924-2.5-2.106-3.811-3.546-3.905s-2.628,1.075-3.564,3.514a28.83,28.83,0,0,0-1.4,10,29.512,29.512,0,0,0,1.4,10.076q1.4,3.735,3.564,3.709T913.861,2616.477Z"/><path id="Контур_118" data-name="Контур 118" d="M958.3,2573.655v55.534l-5.8.24v-45.9l-11.376-1.18V2629.9l-5.8.24V2570.5Z"/><path id="Контур_119" data-name="Контур 119" d="M978.534,2592.271q2.412,4.587,2.412,13.4v22.577l-5.256.218v-5.017q-1.584,5.678-5.9,5.874a5.087,5.087,0,0,1-3.87-1.457,9.993,9.993,0,0,1-2.5-4.43,22.792,22.792,0,0,1-.863-6.553q0-5.868,2.033-9.176a6.544,6.544,0,0,1,6.282-3.095l4.464.176a13.027,13.027,0,0,0-1.115-5.952,3.9,3.9,0,0,0-3.349-2.291,5,5,0,0,0-3.042.835,8,8,0,0,0-2.538,2.671l-2.015-8.616a10.166,10.166,0,0,1,3.8-3.392,8.285,8.285,0,0,1,4.554-.863C974.622,2587.476,976.926,2589.181,978.534,2592.271Zm-4.788,27.57a9.043,9.043,0,0,0,1.584-4.1v-4.123l-3.851-.062q-3.456-.056-3.457,4.785a6.755,6.755,0,0,0,.846,3.64,2.564,2.564,0,0,0,2.322,1.3A3.3,3.3,0,0,0,973.746,2619.841Z"/><path id="Контур_120" data-name="Контур 120" d="M1002.133,2592.524a17.95,17.95,0,0,1,3.473,6.832,34.736,34.736,0,0,1,1.26,9.818,34.018,34.018,0,0,1-1.26,9.75,16.784,16.784,0,0,1-3.473,6.641,6.989,6.989,0,0,1-4.914,2.564c-2.473.108-4.416-1.334-5.832-4.352v17.789l-5.616.512v-52.932l5.364.516v4.4c1.391-3.182,3.42-4.63,6.084-4.368A7.452,7.452,0,0,1,1002.133,2592.524Zm-2.341,23.914a16.723,16.723,0,0,0,1.387-7.419,17.234,17.234,0,0,0-1.387-7.5c-.924-1.912-2.1-2.921-3.546-3.015s-2.622.778-3.546,2.625a17.346,17.346,0,0,0-1.386,7.616,17.874,17.874,0,0,0,1.386,7.692q1.386,2.846,3.546,2.818C997.687,2619.245,998.868,2618.3,999.792,2616.438Z"/><path id="Контур_121" data-name="Контур 121" d="M1026.306,2600.97l-6.552-.415v26.085l-5.58.231V2600.2l-6.552-.415v-8.541l18.684,1.795Z"/><path id="Контур_122" data-name="Контур 122" d="M1029.258,2593.324l5.58.536v12.552l8.424.357v-12.1l5.616.539v30.222l-5.616.233v-11.578l-8.424-.084v12.012l-5.58.231Z"/><path id="Контур_123" data-name="Контур 123" d="M1072.925,2613.178l-14.653-.235a7.552,7.552,0,0,0,1.873,4.24,4.8,4.8,0,0,0,3.671,1.5,5.491,5.491,0,0,0,2.683-.677,6.955,6.955,0,0,0,2.178-2.037l2.988,4.537a9.344,9.344,0,0,1-7.992,4.728,8.966,8.966,0,0,1-5.8-1.661,11.652,11.652,0,0,1-3.888-5.27,21.3,21.3,0,0,1-1.368-7.883,21.054,21.054,0,0,1,1.35-7.782,11.262,11.262,0,0,1,3.708-5.1,7.507,7.507,0,0,1,5.274-1.4,9.2,9.2,0,0,1,5.148,2.247,12.925,12.925,0,0,1,3.618,5.231,19.852,19.852,0,0,1,1.314,7.461Q1073.033,2611.229,1072.925,2613.178Zm-13.14-9.447a7.789,7.789,0,0,0-1.584,4.316l9.54.375a8.225,8.225,0,0,0-1.584-4.28,4.288,4.288,0,0,0-3.168-1.8A3.691,3.691,0,0,0,1059.785,2603.731Z"/><path id="Контур_124" data-name="Контур 124" d="M1093.643,2600.7a11.694,11.694,0,0,1,3.473,4.563,15.5,15.5,0,0,1,1.26,6.414,15.025,15.025,0,0,1-1.26,6.345,10.806,10.806,0,0,1-3.473,4.372,8.758,8.758,0,0,1-4.914,1.757,6.376,6.376,0,0,1-5.833-2.832v11.917l-5.616.512v-35.8l5.365.515v2.948a6.055,6.055,0,0,1,6.084-2.73A9.238,9.238,0,0,1,1093.643,2600.7Zm-2.341,15.7a7.871,7.871,0,0,0,1.386-4.88,8.213,8.213,0,0,0-1.386-4.957,4.61,4.61,0,0,0-3.546-2.067,3.916,3.916,0,0,0-3.546,1.677,8.284,8.284,0,0,0-1.386,5.077,8.631,8.631,0,0,0,1.386,5.153,4.153,4.153,0,0,0,3.546,1.871A4.319,4.319,0,0,0,1091.3,2616.4Z"/><path id="Контур_125" data-name="Контур 125" d="M1118.177,2610.29a6.64,6.64,0,0,1,1.943,5.088,6.74,6.74,0,0,1-2.195,5.341,9.654,9.654,0,0,1-6.229,2.147l-9.431.351v-22.879l5.58.536v7.07l4.607.24A8.809,8.809,0,0,1,1118.177,2610.29Zm-4.5,7.345a3.069,3.069,0,0,0,.863-2.371,2.824,2.824,0,0,0-.846-2.263,4.046,4.046,0,0,0-2.5-.819l-3.347-.129v6.412l3.347-.045A3.457,3.457,0,0,0,1113.677,2617.635Zm8.531-15.381,5.58.536v19.368l-5.58.232Z"/></g></g></svg>