<svg xmlns="http://www.w3.org/2000/svg" width="1317.197" height="1021.74" viewBox="0 0 1317.197 1021.74"><g id="Сгруппировать_63" data-name="Сгруппировать 63" transform="translate(664.76 -210.672)"><path id="Контур_91" data-name="Контур 91" d="M-661.857,1220.767c49.49,2.911,110.617-33.475,145.552-64.038l222.686-835.44-107.707-34.934,2.912-8.734c69.869-8.733,205.218-29.1,253.249-66.949H-62.2c84.417,0,352.222,2.911,502.136,8.734,80.054,4.362,176.116,4.362,212.5,23.289V252.88S584.028,411.528,527.264,431.9L13.483,232.5l-119.342,443.92a717.323,717.323,0,0,0,94.6,5.823c113.52,0,203.767-24.741,282.361-49.491,5.823-1.451,17.459,7.283,21.83,5.823,7.274,30.572-45.119,216.863-87.327,197.945L-111.682,695.341l-144.092,537.071H-664.76Z"/></g></svg>