<svg xmlns="http://www.w3.org/2000/svg" width="768.579" height="662.311" viewBox="0 0 768.579 662.311"><g id="Сгруппировать_64" data-name="Сгруппировать 64" transform="translate(-575.442 -173.757)"><path id="Контур_92" data-name="Контур 92" d="M1150.484,356.357c106.725-41.979,186.486.585,193.223,92.474,7.376,125.571-115.732,257.628-292.789,327.272C773.2,885.341,590.067,843.439,576.24,665.863,562.8,485.712,720.061,312.352,991.721,205.5c75.191-29.575,287.009-57.14,263.965,8.884-6.68,29.294-27.016,77.29-60.969,90.645a67.369,67.369,0,0,1-20.643,4.487L1052.8,414.175C1087.062,387.368,1120.166,368.282,1150.484,356.357Zm-86.715,402.569C1219,697.867,1338.056,566.2,1330.362,454.081c-6.685-84.637-90.411-115.938-200.771-72.529-46.089,18.129-95.733,48.561-148.111,93.406l-168,146.077C832.981,741.835,925.51,813.309,1063.769,758.926ZM811.278,597.656c.029,3.622-.362,6.2-.331,9.828l346.095-298.545c-25.214-67.652-45.6-140.836-162.018-95.044C827.663,279.725,804.106,501.089,811.278,597.656Z"/></g></svg>