<svg xmlns="http://www.w3.org/2000/svg" width="192.453" height="62.848" viewBox="0 0 192.453 62.848"><g id="Сгруппировать_92" data-name="Сгруппировать 92" transform="translate(-864.008 -2279.63)"><g id="Сгруппировать_91" data-name="Сгруппировать 91" fill="#fff"><path id="Контур_149" data-name="Контур 149" d="M886.976,2286.9v30.071l-5.8-.458v-23.4l-11.376,1.059v21.445l-5.8-.458v-25.2Z"/><path id="Контур_150" data-name="Контур 150" d="M907.208,2294.691c1.607,1.857,2.412,4.792,2.412,8.778v15.294l-5.256-.415v-3.232c-1.056,2.335-3.024,3.371-5.9,3.137a8.111,8.111,0,0,1-3.87-1.266,7.085,7.085,0,0,1-2.5-2.769,8.157,8.157,0,0,1-.863-3.767,6.836,6.836,0,0,1,2.033-5.229c1.356-1.3,3.45-1.986,6.282-2.033l4.464-.075a5.521,5.521,0,0,0-1.115-3.732,3.964,3.964,0,0,0-3.349-1.15,8.187,8.187,0,0,0-3.042.767,8.277,8.277,0,0,0-2.538,1.759l-2.016-4.778a12.853,12.853,0,0,1,3.8-2.444,14.524,14.524,0,0,1,4.554-1.168C903.3,2292.109,905.6,2292.874,907.208,2294.691Zm-4.788,18a4.554,4.554,0,0,0,1.584-2.553v-2.646l-3.852-.042q-3.454-.037-3.456,2.854a2.99,2.99,0,0,0,.846,2.218,3.376,3.376,0,0,0,2.322.923A3.838,3.838,0,0,0,902.42,2312.692Z"/><path id="Контур_151" data-name="Контур 151" d="M930.806,2291.672a11.7,11.7,0,0,1,3.473,5.293,28.208,28.208,0,0,1,0,16.673,11.767,11.767,0,0,1-3.473,5.309,6.751,6.751,0,0,1-4.914,1.54,7.254,7.254,0,0,1-5.832-3.919v13.3l-5.617-.774v-37.538l5.365-.45v3.28a7.385,7.385,0,0,1,6.084-4.228A6.721,6.721,0,0,1,930.806,2291.672Zm-2.341,19.669a13.78,13.78,0,0,0,0-12.05,3.856,3.856,0,0,0-3.546-2.081,4.363,4.363,0,0,0-3.546,2.331,12.8,12.8,0,0,0,0,11.584,4.336,4.336,0,0,0,3.546,2.314A3.878,3.878,0,0,0,928.465,2311.341Z"/><path id="Контур_152" data-name="Контур 152" d="M954.979,2296.288l-6.552.3v25.246l-5.58-.441v-24.553l-6.552.3v-7.412l18.684-1.569Z"/><path id="Контур_153" data-name="Контур 153" d="M957.931,2287.9l5.58-.469v13.892l8.424-.172v-14.427l5.616-.472v37.876l-5.616-.444v-13.807l-8.424-.153v13.294l-5.58-.441Z"/><path id="Контур_154" data-name="Контур 154" d="M1001.6,2308.554l-14.653-.159a12.829,12.829,0,0,0,1.872,5.851,4.593,4.593,0,0,0,3.672,2.3,3.977,3.977,0,0,0,2.683-.83,8.318,8.318,0,0,0,2.178-2.931l2.988,7.041c-1.824,4.351-4.488,6.36-7.992,6.074a8.621,8.621,0,0,1-5.8-3.068,18.529,18.529,0,0,1-3.888-7.362,35.764,35.764,0,0,1-1.368-10.284,36.422,36.422,0,0,1,1.35-10.255,19.7,19.7,0,0,1,3.708-7.4,7.775,7.775,0,0,1,5.274-3.048,6.191,6.191,0,0,1,5.147,2.146,16.893,16.893,0,0,1,3.619,7.263,44.044,44.044,0,0,1,1.314,11.4Q1001.707,2305.522,1001.6,2308.554Zm-13.14-12.9a14.409,14.409,0,0,0-1.584,6.071l9.54-.16a14.608,14.608,0,0,0-1.584-6.137q-1.3-2.247-3.168-2.148A4,4,0,0,0,988.459,2295.659Z"/><path id="Контур_155" data-name="Контур 155" d="M1022.316,2284.722a20.3,20.3,0,0,1,3.474,7.984,61.35,61.35,0,0,1,0,24.74,20.375,20.375,0,0,1-3.474,8c-1.476,1.817-3.114,2.644-4.914,2.5-2.472-.2-4.416-2.116-5.832-5.72v20.257l-5.616-.774v-57.833l5.364-.45v5c1.392-3.873,3.42-5.939,6.084-6.169C1019.2,2282.1,1020.84,2282.913,1022.316,2284.722Zm-2.34,29.4a30.132,30.132,0,0,0,0-18.067q-1.386-3.31-3.546-3.2c-1.44.068-2.622,1.224-3.546,3.453a28.633,28.633,0,0,0,0,17.6c.924,2.225,2.106,3.375,3.546,3.436S1019.052,2316.335,1019.976,2314.124Z"/><path id="Контур_156" data-name="Контур 156" d="M1046.85,2300.455q1.944,4.187,1.943,12.107,0,8.28-2.195,12.645c-1.465,2.873-3.541,4.192-6.229,3.979l-9.431-.835v-46.578l5.58-.468v15.182l4.607-.146Q1044.906,2296.313,1046.85,2300.455Zm-4.5,17.185a12.83,12.83,0,0,0,.863-5.384,11.742,11.742,0,0,0-.846-5.15,2.877,2.877,0,0,0-2.5-1.709l-3.347-.084v13.77l3.347.153A2.394,2.394,0,0,0,1042.35,2317.64Zm8.531-37.541,5.58-.469v50.738l-5.58-.441Z"/></g></g></svg>