<svg xmlns="http://www.w3.org/2000/svg" width="217.473" height="76.111" viewBox="0 0 217.473 76.111"><g id="Сгруппировать_60" data-name="Сгруппировать 60" transform="translate(-96.217 -1159.619)"><path id="Контур_82" data-name="Контур 82" d="M119.185,1162.459v57.78l-5.8.254V1172.82l-11.376-1.047v49.219l-5.8.255v-61.628Z"/><path id="Контур_83" data-name="Контур 83" d="M141.307,1179.757a20.934,20.934,0,0,1,3.473,7.685,44.347,44.347,0,0,1,1.26,11.143,43.726,43.726,0,0,1-1.26,11.093,19.986,19.986,0,0,1-3.473,7.541,6.731,6.731,0,0,1-4.914,2.89c-2.473.114-4.416-1.518-5.832-4.92v20.034l-5.617.507v-59.411l5.365.455v4.953c1.391-3.614,3.42-5.293,6.084-5.062A7.08,7.08,0,0,1,141.307,1179.757Zm-2.341,27.125a21.2,21.2,0,0,0,1.387-8.414,21.617,21.617,0,0,0-1.387-8.469q-1.386-3.227-3.546-3.352t-3.546,3.023a21.846,21.846,0,0,0-1.386,8.6,22.3,22.3,0,0,0,1.386,8.655q1.386,3.2,3.546,3.166T138.966,1206.882Z"/><path id="Контур_84" data-name="Контур 84" d="M153.51,1216.688a17.475,17.475,0,0,1-3.8-7.27,38.87,38.87,0,0,1-1.368-10.786,38.27,38.27,0,0,1,1.368-10.729,16.639,16.639,0,0,1,3.8-7.116,6.679,6.679,0,0,1,5.49-2.16,8.148,8.148,0,0,1,5.472,3.018,19.138,19.138,0,0,1,3.78,7.272,35.014,35.014,0,0,1,1.367,10.151,34.429,34.429,0,0,1-1.367,10.095,18.183,18.183,0,0,1-3.78,7.117,7.77,7.77,0,0,1-5.472,2.794A6.953,6.953,0,0,1,153.51,1216.688Zm9.036-9.935a18.4,18.4,0,0,0,1.386-7.8,18.787,18.787,0,0,0-1.386-7.857q-1.388-3-3.546-3.124t-3.564,2.793a18.774,18.774,0,0,0-1.4,7.985,19.189,19.189,0,0,0,1.4,8.043q1.4,2.975,3.564,2.938C160.439,1209.708,161.621,1208.712,162.546,1206.753Z"/><path id="Контур_85" data-name="Контур 85" d="M188.951,1190.181l-9.935-.538v27.971l-5.58.245v-37.425l15.515,1.317Z"/><path id="Контур_86" data-name="Контур 86" d="M208.23,1185.011a15.569,15.569,0,0,1,3.474,6.132,28.189,28.189,0,0,1,1.26,8.813,27.7,27.7,0,0,1-1.26,8.764,14.774,14.774,0,0,1-3.474,5.988,7.328,7.328,0,0,1-4.914,2.337c-2.472.114-4.416-1.171-5.832-3.88v16.016l-5.616.507V1182l5.364.455v3.961c1.392-2.867,3.42-4.173,6.084-3.942A7.675,7.675,0,0,1,208.23,1185.011Zm-2.34,21.505a13.779,13.779,0,0,0,1.386-6.676,14.115,14.115,0,0,0-1.386-6.732c-.924-1.718-2.106-2.623-3.546-2.7s-2.622.707-3.546,2.374a14.284,14.284,0,0,0-1.386,6.859,14.644,14.644,0,0,0,1.386,6.917q1.386,2.555,3.546,2.518C203.784,1209.051,204.966,1208.195,205.89,1206.516Z"/><path id="Контур_87" data-name="Контур 87" d="M230.964,1188.19c1.607,2.315,2.412,5.669,2.412,10.086v16.953l-5.256.23v-3.784a6.219,6.219,0,0,1-5.9,4.505,6.013,6.013,0,0,1-3.87-1.057,7.312,7.312,0,0,1-2.5-3.344,13.472,13.472,0,0,1-.864-4.984,10.829,10.829,0,0,1,2.034-6.991q2.034-2.487,6.282-2.345l4.464.142a7.833,7.833,0,0,0-1.115-4.5,4.107,4.107,0,0,0-3.349-1.753,6.226,6.226,0,0,0-3.042.613,7.154,7.154,0,0,0-2.538,2.016l-2.016-6.57a9.619,9.619,0,0,1,3.8-2.54,10.528,10.528,0,0,1,4.554-.6A8.891,8.891,0,0,1,230.964,1188.19Zm-4.788,20.778a6.065,6.065,0,0,0,1.584-3.11v-3.11l-3.852-.038q-3.456-.034-3.456,3.64a4.144,4.144,0,0,0,.846,2.754,2.794,2.794,0,0,0,2.322.97A3.707,3.707,0,0,0,226.176,1208.968Z"/><path id="Контур_88" data-name="Контур 88" d="M257.135,1214.186v-15.949l-5.8,13.554-2.376.075-5.651-14.142v17.069l-5.077.223v-29.083l5.869.5,6.191,16.44,6.588-15.356,5.256.446.072,26Z"/><path id="Контур_89" data-name="Контур 89" d="M286.438,1212.9v-13.692l-5.795,11.662-2.376.074-5.652-12.241v14.8l-5.076.223v-25.31l5.868.5,6.192,14.26L286.187,1190l5.255.446.073,22.23Z"/><path id="Контур_90" data-name="Контур 90" d="M311.278,1194.015a8.787,8.787,0,0,1,2.412,6.637V1211.7l-5.255.231v-2.5c-1.057,1.905-3.025,2.932-5.9,3.064a8.219,8.219,0,0,1-3.87-.654,5.577,5.577,0,0,1-2.5-2.229,6.534,6.534,0,0,1-.863-3.37,5.8,5.8,0,0,1,2.033-4.724q2.035-1.659,6.282-1.518l4.464.142a3.98,3.98,0,0,0-1.115-2.988,5.034,5.034,0,0,0-3.349-1.225,8.83,8.83,0,0,0-3.042.354,7.2,7.2,0,0,0-2.538,1.315l-2.015-4.476a10.342,10.342,0,0,1,3.8-1.618,15.23,15.23,0,0,1,4.554-.272A10.863,10.863,0,0,1,311.278,1194.015Zm-4.788,13.649a3.857,3.857,0,0,0,1.584-2.062v-2.053l-3.851-.039q-3.456-.034-3.456,2.429a2.22,2.22,0,0,0,.845,1.842,3.534,3.534,0,0,0,2.323.633A4.8,4.8,0,0,0,306.49,1207.664Z"/></g></svg>