<svg xmlns="http://www.w3.org/2000/svg" width="845.72" height="817.618" viewBox="0 0 845.72 817.618"><g id="Сгруппировать_65" data-name="Сгруппировать 65" transform="translate(-491.105 -1031.862)"><path id="Контур_93" data-name="Контур 93" d="M1092.061,1803.289c-94,102.479-287.258,13.045-378.336-61.909-127.975-105.319-226.347-277.152-222.512-368.753l9.9-7.327s126.042,8.971,169.108,48.281c0,0-17.484,235.071-11.307,244.022,43.135,50.97,85.459,93.525,124.791,116.23,88.833,51.84,123.335,35.759,151.672,10.725,122.681-102.072-378.009-473.514-193.94-697.18,73.062-88.779,237.749-75.068,414.144,70.1,118.751,97.728,174.39,222.8,181.247,249.713l-7.592,9.224s-136.074,7.907-186.725-22.173c0,0-1.031-229.029-9.1-235.668-87.215-67.907-177.946-117.44-232.976-50.572C810.3,1217.527,1294.1,1578.943,1092.061,1803.289Z"/></g></svg>