<svg xmlns="http://www.w3.org/2000/svg" width="870.418" height="962.754" viewBox="0 0 870.418 962.754"><g id="Сгруппировать_66" data-name="Сгруппировать 66" transform="translate(-1195.45 -551)"><path id="Контур_94" data-name="Контур 94" d="M2017.931,1194.391c84.591,94.789,63.122,239.175-111.807,295.514-146.946,47.326-366.261,33-416.741-123.737L1348.305,928.129l-148.35,47.779-4.505-13.988,7-2.255c282.786-100.354,165.341-301.938,165.341-301.938C1398.2,593.863,1526.5,551,1526.5,551l18.59.192c22.16,16.03,75.773,230.462-236.28,374.217l506.607-163.161,4.505,13.988L1617,841.59l151.089,459.531c37.41,116.155,62.1,202.419,178.849,152.471,117.7-51.816,135.533-159.505,56.993-254.694Z"/></g></svg>